G04 Layer_Color=8508508*
%FSAX24Y24*%
%MOIN*%
G70*
G01*
G75*
%ADD81C,0.0039*%
G36*
X039895Y024200D02*
X039952Y024177D01*
X040004Y024142D01*
X040048Y024098D01*
X040082Y024047D01*
X040106Y023990D01*
X040118Y023929D01*
Y023898D01*
Y023661D01*
Y023630D01*
X040106Y023570D01*
X040082Y023512D01*
X040048Y023461D01*
X040004Y023417D01*
X039952Y023382D01*
X039895Y023359D01*
X039834Y023346D01*
X039693D01*
X039633Y023359D01*
X039575Y023382D01*
X039524Y023417D01*
X039480Y023461D01*
X039445Y023512D01*
X039422Y023570D01*
X039409Y023630D01*
Y023661D01*
Y023898D01*
Y023929D01*
X039422Y023990D01*
X039445Y024047D01*
X039480Y024098D01*
X039524Y024142D01*
X039575Y024177D01*
X039633Y024200D01*
X039693Y024213D01*
X039834D01*
X039895Y024200D01*
D02*
G37*
G36*
X029830Y026772D02*
X030117Y026737D01*
X030398Y026668D01*
X030669Y026566D01*
X030925Y026432D01*
X031164Y026269D01*
X031381Y026078D01*
X031574Y025862D01*
X031740Y025625D01*
X031876Y025369D01*
X031980Y025099D01*
X032051Y024819D01*
X032088Y024532D01*
X032091Y024243D01*
X032058Y023955D01*
X031992Y023674D01*
X031892Y023402D01*
X031760Y023144D01*
X031599Y022904D01*
X031410Y022686D01*
X031196Y022491D01*
X030960Y022323D01*
X030706Y022185D01*
X030437Y022079D01*
X030297Y022042D01*
X030266Y022042D01*
X030205Y022054D01*
X030148Y022078D01*
X030096Y022112D01*
X030052Y022156D01*
X030018Y022208D01*
X029994Y022265D01*
X029982Y022326D01*
Y022357D01*
X029980D01*
Y022441D01*
X029980Y022441D01*
X029390D01*
Y022357D01*
X029388D01*
Y022326D01*
X029376Y022265D01*
X029352Y022208D01*
X029318Y022156D01*
X029274Y022112D01*
X029222Y022078D01*
X029165Y022054D01*
X029104Y022042D01*
X029073D01*
X029073Y022042D01*
X028933Y022079D01*
X028664Y022185D01*
X028410Y022323D01*
X028174Y022491D01*
X027960Y022686D01*
X027771Y022905D01*
X027610Y023145D01*
X027478Y023402D01*
X027378Y023674D01*
X027312Y023955D01*
X027279Y024243D01*
X027282Y024532D01*
X027319Y024819D01*
X027390Y025100D01*
X027495Y025369D01*
X027631Y025625D01*
X027796Y025862D01*
X027989Y026078D01*
X028206Y026269D01*
X028445Y026432D01*
X028701Y026566D01*
X028972Y026668D01*
X029253Y026737D01*
X029540Y026772D01*
X029830Y026772D01*
D02*
G37*
G36*
X018845Y025894D02*
X019091Y025763D01*
X019320Y025603D01*
X019528Y025417D01*
X019712Y025207D01*
X019870Y024976D01*
X019999Y024729D01*
X020097Y024467D01*
X020163Y024196D01*
X020197Y023919D01*
Y023640D01*
X020163Y023363D01*
X020097Y023092D01*
X019999Y022830D01*
X019870Y022583D01*
X019712Y022352D01*
X019528Y022142D01*
X019320Y021956D01*
X019091Y021796D01*
X018845Y021665D01*
X018715Y021614D01*
X018715D01*
X018715Y021614D01*
X018715D01*
X018715Y021614D01*
X017033Y021614D01*
X016903Y021665D01*
X016657Y021796D01*
X016428Y021956D01*
X016220Y022142D01*
X016036Y022352D01*
X015878Y022583D01*
X015749Y022830D01*
X015651Y023092D01*
X015585Y023363D01*
X015551Y023640D01*
Y023919D01*
X015585Y024196D01*
X015651Y024467D01*
X015749Y024729D01*
X015878Y024976D01*
X016036Y025207D01*
X016220Y025417D01*
X016428Y025603D01*
X016657Y025763D01*
X016903Y025894D01*
X017033Y025945D01*
X018715D01*
X018845Y025894D01*
D02*
G37*
G36*
X043360Y024200D02*
X043417Y024177D01*
X043468Y024142D01*
X043512Y024098D01*
X043547Y024047D01*
X043571Y023990D01*
X043583Y023929D01*
Y023898D01*
Y023661D01*
Y023630D01*
X043571Y023570D01*
X043547Y023512D01*
X043512Y023461D01*
X043468Y023417D01*
X043417Y023382D01*
X043360Y023359D01*
X043299Y023346D01*
X043158D01*
X043097Y023359D01*
X043040Y023382D01*
X042988Y023417D01*
X042944Y023461D01*
X042910Y023512D01*
X042886Y023570D01*
X042874Y023630D01*
Y023661D01*
Y023898D01*
Y023929D01*
X042886Y023990D01*
X042910Y024047D01*
X042944Y024098D01*
X042988Y024142D01*
X043040Y024177D01*
X043097Y024200D01*
X043158Y024213D01*
X043299D01*
X043360Y024200D01*
D02*
G37*
G36*
X018715Y025945D02*
X018715D01*
X018715Y025945D01*
X018715Y025945D01*
D02*
G37*
G36*
X017033Y025945D02*
X017033Y025945D01*
X017033D01*
X017033Y025945D01*
Y025945D01*
D02*
G37*
G36*
X054456Y025848D02*
X054680Y025707D01*
X054886Y025541D01*
X055073Y025354D01*
X055238Y025146D01*
X055379Y024922D01*
X055494Y024683D01*
X055581Y024433D01*
X055640Y024175D01*
X055669Y023912D01*
Y023647D01*
X055640Y023384D01*
X055581Y023126D01*
X055494Y022876D01*
X055379Y022637D01*
X055238Y022413D01*
X055073Y022206D01*
X054886Y022018D01*
X054680Y021853D01*
X054456Y021711D01*
X054337Y021653D01*
Y021653D01*
X054337Y021654D01*
X052278Y021653D01*
X052158Y021711D01*
X051934Y021853D01*
X051728Y022018D01*
X051541Y022206D01*
X051376Y022413D01*
X051235Y022637D01*
X051121Y022876D01*
X051033Y023126D01*
X050974Y023384D01*
X050945Y023647D01*
Y023912D01*
X050974Y024175D01*
X051033Y024433D01*
X051121Y024683D01*
X051235Y024922D01*
X051376Y025146D01*
X051541Y025354D01*
X051728Y025541D01*
X051934Y025707D01*
X052158Y025848D01*
X052278Y025906D01*
Y025906D01*
X052278Y025906D01*
X054337D01*
X054337Y025906D01*
X054456Y025848D01*
D02*
G37*
D81*
X010000Y010000D02*
Y037559D01*
X061181D01*
Y010000D02*
Y037559D01*
X010000Y010000D02*
X061181D01*
M02*
