M48
;Layer_Color=9474304
;FILE_FORMAT=2:4
INCH
;TYPE=PLATED
T01F00S00C0.0118
T02F00S00C0.0197
T03F00S00C0.0315
T04F00S00C0.0394
T06F00S00C0.0472
T07F00S00C0.0512
T08F00S00C0.0650
T09F00S00C0.0709
T10F00S00C0.0787
T11F00S00C0.1260
%
T01
X010630Y014173
X014173
Y010630
X017717
X021260
X021555Y013553
X021959
X024803Y014173
Y010630
X028346
Y014173
X031890
Y010630
X035433
Y014173
X038976Y010630
X042520
Y014173
X046063
Y010630
X056693
Y014173
Y017717
Y021260
X053150
X049872Y022923
X049606Y024803
X049429Y025266
X047382Y023109
X046959Y021939
X048004Y019646
X047943Y018292
X048937Y020404
X047874Y028219
X049094Y030472
X056693Y028346
Y024803
X044852Y024232
X044857Y023612
X044764Y022904
X044715Y020551
X046063Y017717
X042520
X038976
X035433
X031890
Y021260
X035433
X037244Y030472
X038937
X040630
X042323
X044016
X027894Y028839
X024803Y028346
X024764Y026634
X023002Y028366
X020768Y028947
X020433
X020108
X019820Y029114
X019823Y029400
Y029685
X018740Y030157
X018740Y030472
X018012Y030305
X016575Y030285
X016850Y029695
X016841Y028917
X017717Y021260
X021260
Y017717
Y024803
X028346Y021260
Y017717
X014173
X010630
Y021260
Y024803
Y028346
X016762Y032018
X031533Y031978
X038091Y032165
X039783
X041476
X043169
X044862
X044016Y033858
X042323
X040630
X038937
X037244
X038091Y035551
X039783
X041476
X043169
X044862
X046555
X048248
X049941
X051634
X053327
X052480Y033858
X050787
X049094
X049941Y032165
X048248
X054173Y033858
X056693Y031890
T02
X019823Y012756
Y014331
X037947Y014331
X037953Y012756
X049026Y012894
X049754Y013632
X049764Y012136
X050532Y012874
T03
X017953Y033583
X018740
T04
X038524Y023002
X040512Y021024
X041496
X042480
X014222Y027313
X016988Y035197
X025876Y031663
T06
X015925Y029862
X011594
T07
X049764Y012874
Y018898
T08
X046624Y029510
Y031659
Y033809
T09
X051579Y014906
X053579
Y016906
X051579
Y030654
X053579
Y032654
X051579
T10
X012776Y033799
X014744
T11
X011339Y011339
X059843
X011339Y036220
X059843
M30
