G04 Layer_Color=16711935*
%FSAX24Y24*%
%MOIN*%
G70*
G01*
G75*
%ADD17C,0.1181*%
%ADD21C,0.0827*%
%ADD53O,0.0925X0.1811*%
%ADD54O,0.1024X0.2008*%
%ADD55C,0.2402*%
%ADD56C,0.0630*%
%ADD57C,0.1220*%
%ADD58C,0.0866*%
%ADD59R,0.7126X0.5945*%
%ADD60R,0.0709X0.0669*%
%ADD61R,0.0354X0.0236*%
%ADD62R,0.0236X0.0354*%
%ADD63R,0.0709X0.1024*%
%ADD64R,0.1024X0.0709*%
%ADD65R,0.0197X0.0228*%
%ADD66R,0.2008X0.1811*%
%ADD67R,0.0339X0.0199*%
%ADD68R,0.0429X0.0199*%
%ADD69R,0.0315X0.0276*%
%ADD70R,0.0512X0.0591*%
%ADD71R,0.2402X0.1220*%
%ADD72R,0.0138X0.0354*%
%ADD73R,0.0118X0.0354*%
%ADD74R,0.0354X0.0118*%
%ADD75R,0.0709X0.0138*%
%ADD76R,0.0276X0.0453*%
%ADD77R,0.0276X0.0650*%
%ADD78R,0.0413X0.0197*%
%ADD79R,0.2008X0.3976*%
G36*
X029658Y034013D02*
X029659Y034013D01*
X029659Y034013D01*
X029659D01*
X029662Y034012D01*
X029663Y034012D01*
X029663Y034012D01*
X029663Y034012D01*
X029665Y034010D01*
X029667Y034010D01*
X029667Y034010D01*
X029667Y034010D01*
X029668Y034008D01*
X029669Y034007D01*
X029669Y034007D01*
X029669Y034007D01*
X029670Y034006D01*
X029672Y034004D01*
X029672Y034004D01*
X029672Y034004D01*
X029673Y034003D01*
X029674Y034001D01*
X029674Y034001D01*
X029674Y034001D01*
X029674Y034000D01*
X029675Y033997D01*
Y033997D01*
X029675Y033997D01*
X029675Y033996D01*
X029675Y033993D01*
Y033993D01*
Y033993D01*
Y033113D01*
X029675Y033111D01*
X029675Y033109D01*
X029675Y033109D01*
Y033109D01*
X029674Y033107D01*
X029674Y033106D01*
X029674Y033106D01*
X029674Y033106D01*
X029673Y033103D01*
X029672Y033102D01*
X029672Y033102D01*
X029672Y033102D01*
X029670Y033100D01*
X029669Y033099D01*
X029669Y033099D01*
X029669Y033099D01*
X029668Y033098D01*
X029667Y033097D01*
X029667Y033097D01*
X029667Y033097D01*
X029665Y033096D01*
X029663Y033095D01*
X029663Y033095D01*
X029663Y033095D01*
X029662Y033095D01*
X029659Y033094D01*
X029659D01*
X029659Y033094D01*
X029658Y033094D01*
X029656Y033094D01*
X028976Y033093D01*
X028976D01*
X028976D01*
X028974Y033094D01*
X028973Y033094D01*
X028973Y033094D01*
X028973D01*
X028970Y033094D01*
X028969Y033095D01*
X028969Y033095D01*
X028969Y033095D01*
X028967Y033096D01*
X028965Y033097D01*
X028965Y033097D01*
X028965Y033097D01*
X028964Y033098D01*
X028962Y033099D01*
X028962Y033099D01*
X028962Y033099D01*
X028961Y033100D01*
X028960Y033102D01*
X028960Y033102D01*
X028960Y033102D01*
X028959Y033103D01*
X028958Y033106D01*
X028958Y033106D01*
X028958Y033106D01*
X028958Y033107D01*
X028957Y033109D01*
Y033109D01*
X028957Y033109D01*
X028957Y033111D01*
X028957Y033113D01*
Y033113D01*
Y033113D01*
Y033993D01*
X028957Y033995D01*
X028957Y033997D01*
X028957Y033997D01*
Y033997D01*
X028958Y033999D01*
X028958Y034001D01*
X028958Y034001D01*
X028958Y034001D01*
X028959Y034003D01*
X028960Y034004D01*
X028960Y034004D01*
X028960Y034004D01*
X028961Y034006D01*
X028962Y034007D01*
X028962Y034007D01*
X028962Y034007D01*
X028964Y034008D01*
X028965Y034010D01*
X028965Y034010D01*
X028965Y034010D01*
X028967Y034010D01*
X028969Y034011D01*
X028969Y034011D01*
X028969Y034011D01*
X028970Y034012D01*
X028973Y034013D01*
X028973D01*
X028973Y034013D01*
X028974Y034013D01*
X028976Y034013D01*
X029656Y034013D01*
X029656D01*
X029656D01*
X029658Y034013D01*
D02*
G37*
G36*
X033373Y034013D02*
X033375Y034013D01*
X033375Y034013D01*
X033375D01*
X033377Y034012D01*
X033379Y034012D01*
X033379Y034012D01*
X033379Y034012D01*
X033381Y034010D01*
X033382Y034010D01*
X033382Y034010D01*
X033382Y034010D01*
X033384Y034008D01*
X033385Y034007D01*
X033385Y034007D01*
X033385Y034007D01*
X033386Y034006D01*
X033388Y034004D01*
X033388Y034004D01*
X033388Y034004D01*
X033388Y034003D01*
X033389Y034001D01*
X033389Y034001D01*
X033389Y034001D01*
X033390Y034000D01*
X033390Y033997D01*
Y033997D01*
X033390Y033997D01*
X033391Y033996D01*
X033391Y033993D01*
Y033993D01*
Y033993D01*
Y033113D01*
X033391Y033111D01*
X033390Y033109D01*
X033390Y033109D01*
Y033109D01*
X033390Y033107D01*
X033389Y033106D01*
X033389Y033106D01*
X033389Y033106D01*
X033388Y033103D01*
X033388Y033102D01*
X033388Y033102D01*
X033388Y033102D01*
X033386Y033100D01*
X033385Y033099D01*
X033385Y033099D01*
X033385Y033099D01*
X033384Y033098D01*
X033382Y033097D01*
X033382Y033097D01*
X033382Y033097D01*
X033381Y033096D01*
X033379Y033095D01*
X033379Y033095D01*
X033379Y033095D01*
X033377Y033094D01*
X033375Y033094D01*
X033375D01*
X033375Y033094D01*
X033373Y033094D01*
X033371Y033093D01*
X032692Y033093D01*
X032692D01*
X032692D01*
X032690Y033093D01*
X032688Y033094D01*
X032688Y033094D01*
X032688D01*
X032686Y033094D01*
X032684Y033095D01*
X032684Y033095D01*
X032684Y033095D01*
X032682Y033096D01*
X032681Y033097D01*
X032681Y033097D01*
X032681Y033097D01*
X032679Y033098D01*
X032678Y033099D01*
X032678Y033099D01*
X032678Y033099D01*
X032677Y033100D01*
X032675Y033102D01*
X032675Y033102D01*
X032675Y033102D01*
X032675Y033103D01*
X032674Y033105D01*
X032674Y033105D01*
X032674Y033105D01*
X032673Y033107D01*
X032673Y033109D01*
Y033109D01*
X032673Y033109D01*
X032672Y033111D01*
X032672Y033113D01*
Y033113D01*
Y033113D01*
Y033993D01*
X032672Y033995D01*
X032673Y033997D01*
X032673Y033997D01*
Y033997D01*
X032673Y033999D01*
X032674Y034001D01*
X032674Y034001D01*
X032674Y034001D01*
X032675Y034003D01*
X032675Y034004D01*
X032675Y034004D01*
X032675Y034004D01*
X032677Y034006D01*
X032678Y034007D01*
X032678Y034007D01*
X032678Y034007D01*
X032679Y034008D01*
X032681Y034010D01*
X032681Y034010D01*
X032681Y034010D01*
X032682Y034010D01*
X032684Y034011D01*
X032684Y034011D01*
X032684Y034011D01*
X032686Y034012D01*
X032688Y034013D01*
X032688D01*
X032688Y034013D01*
X032690Y034013D01*
X032692Y034013D01*
X033371Y034013D01*
X033371D01*
X033371D01*
X033373Y034013D01*
D02*
G37*
G36*
X018715Y025945D02*
X018715D01*
X018715Y025945D01*
X018715Y025945D01*
D02*
G37*
G36*
X017033Y025945D02*
X017033Y025945D01*
X017033D01*
X017033Y025945D01*
Y025945D01*
D02*
G37*
G36*
X054456Y025848D02*
X054680Y025707D01*
X054887Y025541D01*
X055073Y025354D01*
X055238Y025146D01*
X055379Y024922D01*
X055494Y024683D01*
X055581Y024433D01*
X055640Y024175D01*
X055669Y023912D01*
Y023647D01*
X055640Y023384D01*
X055581Y023126D01*
X055494Y022876D01*
X055379Y022637D01*
X055238Y022413D01*
X055073Y022206D01*
X054887Y022018D01*
X054680Y021853D01*
X054456Y021711D01*
X054337Y021654D01*
Y021654D01*
X054337Y021654D01*
X052278Y021654D01*
X052158Y021711D01*
X051934Y021853D01*
X051728Y022018D01*
X051541Y022206D01*
X051376Y022413D01*
X051235Y022637D01*
X051121Y022876D01*
X051033Y023126D01*
X050974Y023384D01*
X050945Y023647D01*
Y023912D01*
X050974Y024175D01*
X051033Y024433D01*
X051121Y024683D01*
X051235Y024922D01*
X051376Y025146D01*
X051541Y025354D01*
X051728Y025541D01*
X051934Y025707D01*
X052158Y025848D01*
X052278Y025906D01*
Y025906D01*
X052278Y025906D01*
X054337D01*
X054337Y025906D01*
X054456Y025848D01*
D02*
G37*
G36*
X043360Y024200D02*
X043417Y024177D01*
X043468Y024142D01*
X043512Y024098D01*
X043547Y024047D01*
X043571Y023990D01*
X043583Y023929D01*
Y023898D01*
Y023661D01*
Y023630D01*
X043571Y023570D01*
X043547Y023512D01*
X043512Y023461D01*
X043468Y023417D01*
X043417Y023382D01*
X043360Y023359D01*
X043299Y023346D01*
X043158D01*
X043097Y023359D01*
X043040Y023382D01*
X042988Y023417D01*
X042944Y023461D01*
X042910Y023512D01*
X042886Y023570D01*
X042874Y023630D01*
Y023661D01*
Y023898D01*
Y023929D01*
X042886Y023990D01*
X042910Y024047D01*
X042944Y024098D01*
X042988Y024142D01*
X043040Y024177D01*
X043097Y024200D01*
X043158Y024213D01*
X043299D01*
X043360Y024200D01*
D02*
G37*
G36*
X039895D02*
X039952Y024177D01*
X040004Y024142D01*
X040048Y024098D01*
X040082Y024047D01*
X040106Y023990D01*
X040118Y023929D01*
Y023898D01*
Y023661D01*
Y023630D01*
X040106Y023570D01*
X040082Y023512D01*
X040048Y023461D01*
X040004Y023417D01*
X039952Y023382D01*
X039895Y023359D01*
X039834Y023346D01*
X039693D01*
X039633Y023359D01*
X039575Y023382D01*
X039524Y023417D01*
X039480Y023461D01*
X039445Y023512D01*
X039422Y023570D01*
X039409Y023630D01*
Y023661D01*
Y023898D01*
Y023929D01*
X039422Y023990D01*
X039445Y024047D01*
X039480Y024098D01*
X039524Y024142D01*
X039575Y024177D01*
X039633Y024200D01*
X039693Y024213D01*
X039834D01*
X039895Y024200D01*
D02*
G37*
G36*
X029830Y026772D02*
X030117Y026737D01*
X030398Y026668D01*
X030669Y026566D01*
X030925Y026432D01*
X031164Y026269D01*
X031381Y026078D01*
X031574Y025862D01*
X031740Y025625D01*
X031876Y025369D01*
X031980Y025099D01*
X032051Y024819D01*
X032088Y024532D01*
X032091Y024243D01*
X032058Y023955D01*
X031992Y023674D01*
X031892Y023402D01*
X031760Y023144D01*
X031599Y022904D01*
X031410Y022686D01*
X031196Y022491D01*
X030960Y022323D01*
X030706Y022185D01*
X030437Y022079D01*
X030297Y022042D01*
X030266Y022042D01*
X030205Y022054D01*
X030148Y022078D01*
X030096Y022112D01*
X030052Y022156D01*
X030018Y022208D01*
X029994Y022265D01*
X029982Y022326D01*
Y022357D01*
X029980D01*
Y022441D01*
X029980Y022441D01*
X029390D01*
Y022357D01*
X029388D01*
Y022326D01*
X029376Y022265D01*
X029352Y022208D01*
X029318Y022156D01*
X029274Y022112D01*
X029222Y022078D01*
X029165Y022054D01*
X029104Y022042D01*
X029073D01*
X029073Y022042D01*
X028933Y022079D01*
X028664Y022185D01*
X028410Y022323D01*
X028174Y022491D01*
X027960Y022686D01*
X027771Y022905D01*
X027610Y023145D01*
X027478Y023402D01*
X027378Y023674D01*
X027312Y023955D01*
X027279Y024243D01*
X027282Y024532D01*
X027319Y024819D01*
X027390Y025100D01*
X027495Y025369D01*
X027631Y025625D01*
X027796Y025862D01*
X027989Y026078D01*
X028206Y026269D01*
X028445Y026432D01*
X028701Y026566D01*
X028972Y026668D01*
X029253Y026737D01*
X029540Y026772D01*
X029830Y026772D01*
D02*
G37*
G36*
X018845Y025894D02*
X019091Y025763D01*
X019320Y025603D01*
X019528Y025417D01*
X019712Y025207D01*
X019870Y024976D01*
X019999Y024729D01*
X020097Y024467D01*
X020163Y024196D01*
X020197Y023919D01*
Y023640D01*
X020163Y023363D01*
X020097Y023092D01*
X019999Y022830D01*
X019870Y022583D01*
X019712Y022352D01*
X019528Y022142D01*
X019320Y021956D01*
X019091Y021796D01*
X018845Y021665D01*
X018715Y021614D01*
X018715D01*
X018715Y021614D01*
X018715D01*
X018715Y021614D01*
X017033Y021614D01*
X016903Y021665D01*
X016657Y021796D01*
X016428Y021956D01*
X016220Y022142D01*
X016036Y022352D01*
X015878Y022583D01*
X015749Y022830D01*
X015651Y023092D01*
X015585Y023363D01*
X015551Y023640D01*
Y023919D01*
X015585Y024196D01*
X015651Y024467D01*
X015749Y024729D01*
X015878Y024976D01*
X016036Y025207D01*
X016220Y025417D01*
X016428Y025603D01*
X016657Y025763D01*
X016903Y025894D01*
X017033Y025945D01*
X018715D01*
X018845Y025894D01*
D02*
G37*
D17*
X046624Y029510D02*
D03*
Y031659D02*
D03*
Y033809D02*
D03*
D21*
X015925Y029862D02*
D03*
X011594D02*
D03*
X040512Y021024D02*
D03*
X041496D02*
D03*
X042480D02*
D03*
D53*
X013150Y014803D02*
D03*
D54*
X015512D02*
D03*
D55*
X011339Y036220D02*
D03*
Y011339D02*
D03*
X059843D02*
D03*
Y036220D02*
D03*
D56*
X017953Y033583D02*
D03*
X018740D02*
D03*
D57*
X012776Y033799D02*
D03*
X014744D02*
D03*
X053579Y030654D02*
D03*
X051579D02*
D03*
Y032654D02*
D03*
X053579D02*
D03*
Y016906D02*
D03*
X051579D02*
D03*
Y014906D02*
D03*
X053579D02*
D03*
D58*
X049764Y012874D02*
D03*
Y018898D02*
D03*
D59*
X039984Y031654D02*
D03*
D60*
X020394Y029488D02*
D03*
Y030591D02*
D03*
X025866Y032520D02*
D03*
Y033622D02*
D03*
X038494Y023858D02*
D03*
Y024961D02*
D03*
D61*
X021604Y029281D02*
D03*
Y028652D02*
D03*
X017699Y032323D02*
D03*
Y031693D02*
D03*
X045285Y023612D02*
D03*
Y024242D02*
D03*
X048361Y019636D02*
D03*
Y020266D02*
D03*
X019301Y031693D02*
D03*
Y032323D02*
D03*
X017165D02*
D03*
Y031693D02*
D03*
X018767Y032323D02*
D03*
Y031693D02*
D03*
X018233Y032323D02*
D03*
Y031693D02*
D03*
X017244Y028917D02*
D03*
Y029547D02*
D03*
X017835Y028917D02*
D03*
Y029547D02*
D03*
X045965Y024242D02*
D03*
Y023612D02*
D03*
X047884Y026535D02*
D03*
Y027165D02*
D03*
X046663Y020669D02*
D03*
Y021299D02*
D03*
X047402Y020669D02*
D03*
Y021299D02*
D03*
X046644Y023612D02*
D03*
Y024242D02*
D03*
X046883Y019587D02*
D03*
Y020217D02*
D03*
D62*
X029281Y032493D02*
D03*
X029911D02*
D03*
X032969Y032490D02*
D03*
X033599D02*
D03*
X045088Y020553D02*
D03*
X045718D02*
D03*
X045088Y022913D02*
D03*
X045718D02*
D03*
X019272Y012756D02*
D03*
X018642D02*
D03*
X017756Y030551D02*
D03*
X017126D02*
D03*
X017126Y030039D02*
D03*
X017756D02*
D03*
X028874Y032493D02*
D03*
X028244D02*
D03*
X032562Y032490D02*
D03*
X031932D02*
D03*
X049734Y027244D02*
D03*
X049104D02*
D03*
X028244Y031942D02*
D03*
X028874D02*
D03*
X031932Y031988D02*
D03*
X032562D02*
D03*
X047884Y027751D02*
D03*
X047254D02*
D03*
X048878Y022923D02*
D03*
X049508D02*
D03*
D63*
X020197Y033268D02*
D03*
Y031693D02*
D03*
D64*
X013937Y012205D02*
D03*
X015512D02*
D03*
X015906Y035197D02*
D03*
X014331D02*
D03*
X056850D02*
D03*
X055276D02*
D03*
X056850Y012362D02*
D03*
X055276D02*
D03*
D65*
X047651Y020146D02*
D03*
Y019626D02*
D03*
D66*
X023110Y030059D02*
D03*
Y033642D02*
D03*
D67*
X029707Y033944D02*
D03*
Y033684D02*
D03*
Y033422D02*
D03*
Y033163D02*
D03*
X033422Y033944D02*
D03*
Y033684D02*
D03*
Y033422D02*
D03*
Y033162D02*
D03*
D68*
X028531Y033944D02*
D03*
Y033684D02*
D03*
Y033422D02*
D03*
Y033163D02*
D03*
X032247Y033944D02*
D03*
Y033684D02*
D03*
Y033422D02*
D03*
Y033162D02*
D03*
D69*
X049813Y027726D02*
D03*
X049065D02*
D03*
X049439Y028659D02*
D03*
X048100Y021803D02*
D03*
X047352D02*
D03*
X047726Y022736D02*
D03*
D70*
X019154Y014331D02*
D03*
X018445D02*
D03*
X037160Y014331D02*
D03*
X036451D02*
D03*
X037283Y012756D02*
D03*
X036575D02*
D03*
D71*
X017874Y027717D02*
D03*
Y019843D02*
D03*
X053307D02*
D03*
Y027717D02*
D03*
D72*
X019350Y030827D02*
D03*
X018445D02*
D03*
Y029724D02*
D03*
X019350D02*
D03*
D73*
X019134Y030827D02*
D03*
X018976D02*
D03*
X018819D02*
D03*
X018661D02*
D03*
Y029724D02*
D03*
X018819D02*
D03*
X018976D02*
D03*
X019134D02*
D03*
D74*
X018346Y030512D02*
D03*
Y030354D02*
D03*
Y030197D02*
D03*
Y030039D02*
D03*
D75*
X019252Y030059D02*
D03*
Y030276D02*
D03*
Y030492D02*
D03*
D76*
X045778Y022283D02*
D03*
X045030D02*
D03*
Y021220D02*
D03*
X045404D02*
D03*
X045778D02*
D03*
D77*
X047386Y025748D02*
D03*
X047886D02*
D03*
X048386D02*
D03*
X047386Y023622D02*
D03*
X047886D02*
D03*
X048386D02*
D03*
X048886Y025748D02*
D03*
Y023622D02*
D03*
D78*
X049016Y021299D02*
D03*
Y021043D02*
D03*
Y020787D02*
D03*
X048150Y021299D02*
D03*
Y020787D02*
D03*
D79*
X024764Y024370D02*
D03*
Y019685D02*
D03*
M02*
